<svg xmlns="http://www.w3.org/2000/svg" viewBox="0 0 1585 1387" width="1585" height="1387" data-floor="7">
<path class="mp-walls" d="M457.0 922.8L488.6 922.8M406.0 922.8L437.6 922.8M508.0 922.8L539.6 922.8M354.6 922.8L386.3 922.8M558.7 922.8L590.4 922.8M609.7 922.8L641.4 922.8M660.7 922.8L692.4 922.8M711.7 922.8L743.4 922.8M1129.9 658.9L815.5 922.8M804.0 922.8L1129.9 649.3M850.4 883.9L952.8 798.0M950.4 1356.6L957.5 1356.6M957.5 1356.6L961.9 1356.6M961.9 1356.6L1054.1 1279.2M1054.1 1279.2L1049.3 1273.6M960.2 1352.0L1051.2 1275.7M1049.3 1273.6L959.2 1349.2M960.8 1353.7L1052.3 1277.0M1550.3 853.2L1555.0 858.8M1555.0 858.8L1054.1 1279.2M1128.7 1216.6L1012.0 1314.6M148.2 1198.2L71.6 1309.1M63.7 1307.6L143.2 1192.3M277.3 997.8L295.3 971.8M248.3 1039.8L266.3 1013.8M219.4 1081.9L237.4 1055.8M190.4 1123.8L208.4 1097.8M161.4 1165.9L179.4 1139.8M602.6 930.2L747.0 930.2M747.0 930.2L747.0 922.8M747.0 922.8L329.0 922.8M329.0 922.8L327.1 925.7M327.1 925.7L324.0 930.2M339.5 930.2L343.0 930.2M343.0 930.2L602.6 930.2M747.0 927.4L344.9 927.4M747.0 925.7L346.1 925.7M806.6 930.2L747.0 930.2M747.0 922.8L804.0 922.8M959.2 1349.2L44.0 1349.2M35.0 1349.2L31.9 1353.7M31.9 1353.7L30.0 1356.6M30.0 1356.6L950.4 1356.6M38.6 1352.0L955.8 1352.0M35.4 1353.7L953.8 1353.7M44.0 1349.2L69.7 1311.8M69.7 1311.8L63.7 1307.6M63.7 1307.6L35.0 1349.2M149.3 1196.5L329.2 935.6M324.0 930.2L143.2 1192.3M143.2 1192.3L149.3 1196.5M325.7 935.6L146.9 1195.0M67.4 1310.3L40.6 1349.2M66.0 1309.3L38.5 1349.2M323.6 935.6L145.6 1193.9M766.3 941.3L655.4 941.3M652.6 941.3L602.6 941.3M597.2 941.3L568.9 941.3M761.5 935.6L655.4 935.6M652.6 935.6L608.4 935.6M761.5 935.6L602.6 935.6M566.2 935.6L345.1 935.6M608.4 930.2L661.1 930.2M1083.8 712.1L1052.8 738.1M1080.1 707.8L1049.2 733.8M1135.3 661.4L1080.1 707.8M1080.1 707.8L911.0 849.6M815.5 922.8L1129.9 658.9M1354.0 1003.6L1357.6 1007.9M955.2 1338.1L961.2 1333.1M965.5 1329.4L1039.7 1267.2M1307.9 1042.1L1354.0 1003.6M1311.6 1046.5L1357.6 1007.9M1045.9 1269.4L967.7 1335.1M963.2 1338.7L950.8 1349.2M950.8 1349.2L959.2 1349.2M1049.3 1273.6L1045.9 1269.4M959.2 1349.2L1049.3 1273.6M1106.6 1218.4L1357.6 1007.9M1357.6 1007.9L1543.6 851.8M1543.6 858.8L1543.6 851.8M58.2 1338.1L597.2 1338.1M602.7 1338.1L955.2 1338.1M54.2 1343.8L597.2 1343.8M602.6 1343.8L957.2 1343.8M54.2 1343.8L597.2 1343.8M602.6 1343.8L957.2 1343.8M71.6 1309.1L148.2 1198.2M149.3 1196.5L329.2 935.6M335.8 935.6L251.9 1057.3M250.4 1059.2L193.1 1142.5M191.0 1145.4L153.7 1199.5M153.7 1199.5L74.2 1314.8M74.2 1314.8L54.2 1343.8M247.9 1063.0L229.9 1089.1M218.9 1105.0L200.9 1131.1M190.0 1147.0L172.0 1173.1M329.2 935.6L566.2 935.6M568.9 935.6L602.6 935.6M602.6 935.6L602.6 930.2M602.6 930.2L339.5 930.2M958.2 1343.8L54.2 1343.8M47.8 1343.8L44.0 1349.2M44.0 1349.2L958.2 1349.2M958.2 1349.2L958.2 1343.8M71.6 1309.1L47.8 1343.8M54.2 1343.8L76.1 1312.2M76.1 1312.2L71.6 1309.1M191.0 1145.4L597.2 1145.4M597.2 1135.7L597.2 1010.8M568.9 1007.9L568.9 935.6M566.2 935.6L335.8 935.6M335.8 935.6L251.9 1057.3M268.2 1071.8L258.8 1102.6M258.8 1113.1L291.0 1113.1M291.1 1113.6L291.1 1138.3M291.1 1138.3L196.0 1138.3M757.0 930.2L828.1 1015.0M830.5 1017.8L1046.9 1275.6M1046.9 1275.6L1060.4 1264.2M1060.4 1264.2L780.2 930.2M780.2 930.2L757.0 930.2M907.6 845.5L806.6 930.2M806.6 930.2L780.2 930.2M1060.4 1264.2L1110.1 1222.5M1549.0 854.3L1549.0 30.0M1549.0 30.0L1129.9 30.0M1129.9 30.0L1129.9 658.9M858.6 1051.3L963.2 1338.7M967.7 1335.1L868.7 1063.3M868.7 1063.3L858.6 1051.3M597.2 935.6L597.2 1007.9M597.2 1010.8L597.2 1135.7M597.2 1138.6L597.2 1142.5M597.2 1145.4L597.2 1343.8M597.2 1343.8L602.6 1343.8M602.6 1343.8L602.6 1141.1M602.6 1135.4L602.6 935.6M602.6 935.6L597.2 935.6M492.7 1253.0L492.7 1206.4M495.5 1206.4L495.5 1253.0M492.7 1253.0L495.5 1253.0M147.0 1197.3L69.7 1309.4M69.7 1309.4L70.3 1309.8M70.3 1309.8L147.6 1197.7M69.7 1309.4L68.5 1311.0M68.5 1311.0L69.7 1311.8M69.7 1311.8L70.9 1310.2M70.9 1310.2L69.7 1309.4M148.1 1195.7L147.0 1197.4M147.0 1197.4L148.2 1198.2M148.2 1198.2L149.3 1196.5M149.3 1196.5L148.1 1195.7M602.6 1141.1L814.8 1141.1M814.8 1141.1L815.2 1141.1M815.2 1141.1L815.4 1141.1M815.4 1141.1L815.4 1135.4M812.6 1135.4L789.4 1135.4M786.6 1135.4L655.4 1135.4M652.6 1135.4L602.6 1135.4M814.8 1140.4L602.6 1140.4M813.4 1136.2L788.6 1136.2M787.3 1136.2L654.7 1136.2M653.3 1136.2L602.6 1136.2M652.6 935.6L652.6 1019.3M652.6 1022.2L652.6 1083.0M652.6 1085.8L652.6 1135.4M655.4 1135.4L655.4 1085.8M655.4 1083.0L655.4 1017.8M655.4 1015.0L655.4 935.6M655.4 935.6L655.1 935.6M655.1 935.6L652.9 935.6M652.9 935.6L652.6 935.6M652.9 1083.4L652.9 1021.8M652.9 1135.4L652.9 1085.4M652.9 1019.6L652.9 936.0M655.1 1083.4L655.1 1017.5M655.1 1135.4L655.1 1085.4M655.1 1015.3L655.1 936.0M654.7 1135.4L654.7 1085.0M654.7 1083.7L654.7 1017.1M654.7 1015.7L654.7 936.4M653.3 1083.7L653.3 1021.4M653.3 1135.4L653.3 1085.0M653.3 1020.0L653.3 936.4M828.1 1015.0L655.4 1015.0M655.4 1017.8L781.4 1017.8M784.3 1017.8L830.5 1017.8M655.4 1015.3L828.5 1015.3M784.0 1017.5L830.2 1017.5M655.4 1017.5L781.8 1017.5M655.4 1017.1L782.2 1017.1M783.6 1017.1L829.9 1017.1M655.4 1015.7L828.7 1015.7M781.4 1083.0L655.4 1083.0M655.4 1085.8L784.3 1085.8M784.3 1085.8L784.3 1085.4M784.3 1085.4L784.3 1083.0M652.6 1083.0L605.5 1083.0M605.5 1083.0L605.5 1083.4M605.5 1083.4L605.5 1085.4M605.5 1085.4L605.5 1085.8M605.5 1085.8L652.6 1085.8M655.4 1083.4L781.8 1083.4M605.9 1083.4L652.6 1083.4M655.4 1085.4L784.0 1085.4M605.9 1085.4L652.6 1085.4M655.4 1085.0L783.6 1085.0M606.2 1085.0L652.6 1085.0M655.4 1083.7L782.2 1083.7M606.2 1083.7L652.6 1083.7M781.4 1017.8L781.4 1083.0M784.3 1083.0L784.3 1017.8M781.8 1083.0L781.8 1017.8M784.0 1083.0L784.0 1017.8M783.6 1083.0L783.6 1017.8M782.2 1083.0L782.2 1017.8M812.6 1015.0L812.6 1122.7M812.6 1125.5L812.6 1135.4M815.4 1135.4L815.4 1015.0M815.4 1015.0L815.2 1015.0M815.2 1015.0L813.0 1015.0M813.0 1015.0L812.6 1015.0M813.0 1123.1L813.0 1015.3M815.2 1135.4L815.2 1015.3M814.8 1135.4L814.8 1015.7M813.4 1123.4L813.4 1015.7M605.5 1022.2L652.6 1022.2M652.6 1019.3L605.5 1019.3M605.5 1019.3L605.5 1019.6M605.5 1019.6L605.5 1021.8M605.5 1021.8L605.5 1022.2M652.6 1021.8L605.9 1021.8M652.6 1019.6L605.9 1019.6M652.6 1020.0L606.2 1020.0M652.6 1021.4L606.2 1021.4M789.4 1135.4L789.4 1125.5M789.4 1122.7L787.0 1122.7M787.0 1122.7L786.6 1122.7M786.6 1122.7L786.6 1135.4M789.4 1125.5L812.6 1125.5M812.6 1122.7L789.4 1122.7M259.0 1076.8L258.1 1102.3M250.4 1077.8L257.3 1102.4M242.5 1081.3L256.4 1102.7M236.2 1087.1L255.8 1103.3M231.7 1094.5L255.4 1104.0M229.8 1102.9L255.2 1104.8M230.4 1111.4L255.2 1105.8M233.5 1119.5L255.6 1106.5M239.0 1126.1L256.1 1107.2M246.1 1130.9L256.8 1107.7M254.4 1133.3L257.6 1108.0M191.0 1145.4L597.2 1145.4M597.2 1142.5L191.0 1142.5M191.0 1142.5L191.0 1142.9M191.0 1142.9L191.0 1145.0M191.0 1145.0L191.0 1145.4M597.2 1145.0L191.4 1145.0M597.2 1142.9L191.4 1142.9M597.2 1143.2L191.8 1143.2M597.2 1144.7L191.8 1144.7M196.0 1141.1L294.0 1141.1M294.0 1141.1L294.0 1140.7M291.1 1138.3L196.0 1138.3M196.0 1138.3L196.0 1138.7M196.0 1138.7L196.0 1140.7M196.0 1140.7L196.0 1141.1M293.6 1140.7L196.3 1140.7M291.5 1138.7L196.3 1138.7M291.8 1139.0L196.7 1139.0M293.3 1140.4L196.7 1140.4M250.2 1059.6L291.1 1087.6M291.1 1087.6L291.1 1087.1M291.1 1087.1L294.0 1087.1M294.0 1087.1L294.0 1086.1M294.0 1086.1L251.9 1057.2M251.9 1057.2L251.6 1057.6M251.6 1057.6L250.4 1059.2M250.4 1059.2L250.2 1059.6M291.1 1087.2L250.7 1059.5M294.0 1086.6L251.9 1057.8M294.0 1087.0L252.0 1058.3M291.7 1087.1L251.2 1059.4M294.0 1138.6L597.2 1138.6M597.2 1135.7L294.0 1135.7M597.2 1138.2L294.0 1138.2M597.2 1136.0L294.0 1136.0M597.2 1136.4L294.0 1136.4M597.2 1137.8L294.0 1137.8M291.1 1113.6L291.1 1138.3M294.0 1135.7L294.0 1113.6M294.0 1113.6L291.1 1113.6M291.5 1138.3L291.5 1113.6M291.8 1138.3L291.8 1113.6M597.2 1007.9L568.9 1007.9M566.2 1007.9L566.2 1010.4M566.2 1010.4L566.2 1010.8M566.2 1010.8L597.2 1010.8M568.6 1008.2L597.2 1008.2M566.5 1010.4L597.2 1010.4M566.8 1010.0L597.2 1010.0M568.2 1008.6L597.2 1008.6M566.2 935.6L566.2 1007.9M568.9 1007.9L568.9 935.6M566.5 1007.9L566.5 935.6M568.6 1007.9L568.6 935.6M568.2 1007.9L568.2 935.6M566.8 1007.9L566.8 935.6M568.9 1007.9L568.9 935.6M568.9 935.6L597.2 1007.9M597.2 935.6L568.9 1007.9M564.7 1012.1L575.5 1012.1M584.5 1012.1L595.3 1012.1M843.1 1019.3L844.9 1024.4M843.1 1019.3L838.2 1013.5"/>
<g class="mp-rooms">
</g>
</svg>
